<mxfile host="app.diagrams.net" modified="2021-04-17T10:56:48.498Z" agent="5.0 (Macintosh; Intel Mac OS X 10_15_7) AppleWebKit/537.36 (KHTML, like Gecko) Chrome/89.0.4389.114 Safari/537.36" etag="Urf99u6Se5Exo9yEwsEj" version="14.3.2" type="github">
  <diagram id="sX5lRdocteplA2PnkL7v" name="Page-1">
    <mxGraphModel dx="946" dy="580" grid="1" gridSize="10" guides="1" tooltips="1" connect="1" arrows="1" fold="1" page="1" pageScale="1" pageWidth="827" pageHeight="1169" math="0" shadow="0">
      <root>
        <mxCell id="0" />
        <mxCell id="1" parent="0" />
        <mxCell id="kAvlEfgu-PQz_QIw7ryi-9" style="edgeStyle=orthogonalEdgeStyle;rounded=0;orthogonalLoop=1;jettySize=auto;html=1;exitX=1;exitY=0.5;exitDx=0;exitDy=0;entryX=0;entryY=0.5;entryDx=0;entryDy=0;" edge="1" parent="1" source="kAvlEfgu-PQz_QIw7ryi-1" target="kAvlEfgu-PQz_QIw7ryi-2">
          <mxGeometry relative="1" as="geometry" />
        </mxCell>
        <mxCell id="kAvlEfgu-PQz_QIw7ryi-1" value="Client" style="whiteSpace=wrap;html=1;aspect=fixed;" vertex="1" parent="1">
          <mxGeometry x="10" y="180" width="110" height="110" as="geometry" />
        </mxCell>
        <mxCell id="kAvlEfgu-PQz_QIw7ryi-10" style="edgeStyle=orthogonalEdgeStyle;rounded=0;orthogonalLoop=1;jettySize=auto;html=1;exitX=1;exitY=0.5;exitDx=0;exitDy=0;entryX=0;entryY=0.5;entryDx=0;entryDy=0;" edge="1" parent="1" source="kAvlEfgu-PQz_QIw7ryi-2" target="kAvlEfgu-PQz_QIw7ryi-6">
          <mxGeometry relative="1" as="geometry" />
        </mxCell>
        <mxCell id="kAvlEfgu-PQz_QIw7ryi-2" value="Discovery-Server&lt;br&gt;(Eureka)" style="whiteSpace=wrap;html=1;aspect=fixed;" vertex="1" parent="1">
          <mxGeometry x="160" y="180" width="110" height="110" as="geometry" />
        </mxCell>
        <mxCell id="kAvlEfgu-PQz_QIw7ryi-12" style="edgeStyle=orthogonalEdgeStyle;rounded=0;orthogonalLoop=1;jettySize=auto;html=1;entryX=1;entryY=0.5;entryDx=0;entryDy=0;" edge="1" parent="1" source="kAvlEfgu-PQz_QIw7ryi-3" target="kAvlEfgu-PQz_QIw7ryi-6">
          <mxGeometry relative="1" as="geometry" />
        </mxCell>
        <mxCell id="kAvlEfgu-PQz_QIw7ryi-3" value="Ratings-Data-Service" style="whiteSpace=wrap;html=1;aspect=fixed;" vertex="1" parent="1">
          <mxGeometry x="500" y="260" width="120" height="120" as="geometry" />
        </mxCell>
        <mxCell id="kAvlEfgu-PQz_QIw7ryi-4" value="Movie-Info-Service" style="whiteSpace=wrap;html=1;aspect=fixed;" vertex="1" parent="1">
          <mxGeometry x="500" y="120" width="120" height="120" as="geometry" />
        </mxCell>
        <mxCell id="kAvlEfgu-PQz_QIw7ryi-11" style="edgeStyle=orthogonalEdgeStyle;rounded=0;orthogonalLoop=1;jettySize=auto;html=1;exitX=1;exitY=0.5;exitDx=0;exitDy=0;entryX=0;entryY=0.5;entryDx=0;entryDy=0;" edge="1" parent="1" source="kAvlEfgu-PQz_QIw7ryi-6" target="kAvlEfgu-PQz_QIw7ryi-4">
          <mxGeometry relative="1" as="geometry" />
        </mxCell>
        <mxCell id="kAvlEfgu-PQz_QIw7ryi-6" value="Movie-Catalog-Service&lt;br&gt;" style="whiteSpace=wrap;html=1;aspect=fixed;" vertex="1" parent="1">
          <mxGeometry x="310" y="180" width="110" height="110" as="geometry" />
        </mxCell>
      </root>
    </mxGraphModel>
  </diagram>
</mxfile>
